<svg width="66" height="65" viewBox="0 0 66 65" fill="none" xmlns="http://www.w3.org/2000/svg">
<g clip-path="url(#clip0_804_2254)">
<rect x="1.5" y="1" width="63" height="63" stroke="#E1F7FF"/>
<path d="M23.1573 31.2146C23.0537 30.547 22.9999 29.863 22.9999 29.1666C22.9999 21.8028 29.0087 15.8333 36.421 15.8333C43.8332 15.8333 49.842 21.8028 49.842 29.1666C49.842 30.83 49.5354 32.4223 48.9752 33.8908C48.8589 34.1957 48.8007 34.3482 48.7743 34.4673C48.7481 34.5852 48.738 34.6682 48.7352 34.789C48.7323 34.9109 48.7489 35.0452 48.7819 35.3138L49.4529 40.7641C49.5255 41.3541 49.5618 41.6491 49.4637 41.8636C49.3777 42.0515 49.225 42.2008 49.0351 42.2824C48.8185 42.3756 48.5244 42.3325 47.9362 42.2463L42.6274 41.4681C42.3502 41.4275 42.2116 41.4072 42.0854 41.4079C41.9605 41.4086 41.8741 41.4178 41.7519 41.4435C41.6284 41.4695 41.4706 41.5286 41.1549 41.6468C39.6828 42.1982 38.0873 42.4999 36.421 42.4999C35.724 42.4999 35.0394 42.4471 34.3711 42.3454M25.7193 49.1666C30.6608 49.1666 34.6666 45.0625 34.6666 39.9999C34.6666 34.9373 30.6608 30.8333 25.7193 30.8333C20.7778 30.8333 16.7719 34.9373 16.7719 39.9999C16.7719 41.0176 16.9338 41.9965 17.2326 42.9111C17.3589 43.2978 17.422 43.4911 17.4427 43.6232C17.4644 43.761 17.4682 43.8385 17.4601 43.9778C17.4524 44.1112 17.419 44.2621 17.3522 44.5638L16.3333 49.1666L21.3246 48.4849C21.5971 48.4477 21.7333 48.4291 21.8523 48.4299C21.9775 48.4308 22.044 48.4375 22.1668 48.462C22.2835 48.4853 22.4569 48.5465 22.8038 48.6689C23.7176 48.9915 24.6985 49.1666 25.7193 49.1666Z" stroke="url(#paint0_linear_804_2254)" stroke-width="1.8" stroke-linecap="round" stroke-linejoin="round"/>
</g>
<rect x="1" y="0.5" width="64" height="64" rx="24" stroke="url(#paint1_linear_804_2254)"/>
<defs>
<linearGradient id="paint0_linear_804_2254" x1="16.6688" y1="23.0472" x2="39.6598" y2="23.3066" gradientUnits="userSpaceOnUse">
<stop stop-color="#FF00FF"/>
<stop offset="1" stop-color="#00BBFF"/>
</linearGradient>
<linearGradient id="paint1_linear_804_2254" x1="61.7057" y1="64.5" x2="3.46322" y2="1.26542" gradientUnits="userSpaceOnUse">
<stop stop-color="#00BBFF"/>
<stop offset="1" stop-color="white"/>
</linearGradient>
<clipPath id="clip0_804_2254">
<rect x="1" y="0.5" width="64" height="64" rx="24" fill="white"/>
</clipPath>
</defs>
</svg>
 