<svg width="66" height="65" viewBox="0 0 66 65" fill="none" xmlns="http://www.w3.org/2000/svg">
<g clip-path="url(#clip0_804_2269)">
<rect x="1.5" y="1" width="63" height="63" stroke="#E1F7FF"/>
<path d="M47.9316 21.5704C47.7844 20.6458 46.9748 19.9558 46.041 19.9558C46.0364 19.9558 46.0272 19.9558 46.0226 19.9558C40.2174 20.0156 34.6192 22.0856 30.171 25.7932C30.033 24.1648 29.5684 22.5778 28.8002 21.1242C27.7514 19.1416 26.1736 17.4856 24.2462 16.3356C23.4688 15.871 22.4982 15.9998 21.891 16.6484C19.0022 19.7258 17.4474 23.7462 17.5164 27.969C17.5808 32.0354 19.1448 35.8626 21.9324 38.802C21.6702 39.8048 21.4724 40.826 21.339 41.8656C21.2838 42.2934 21.5828 42.6844 22.0152 42.7442C22.0474 42.7488 22.0842 42.7488 22.1164 42.7488C22.5028 42.7488 22.8386 42.4636 22.8892 42.068C23.0318 40.987 23.2434 39.929 23.5286 38.9032C23.5608 38.8342 23.5792 38.7652 23.5884 38.6916C26.4082 28.8062 35.5254 21.6302 46.0502 21.5198C46.0502 21.5198 46.0502 21.5198 46.0548 21.5198C46.2204 21.5198 46.3768 21.6532 46.4044 21.8142C46.984 25.4712 47.0024 29.1788 46.4596 32.8404C46.4504 32.868 46.4412 32.8956 46.4366 32.9232C45.3556 37.5646 42.338 41.5298 38.1474 43.7976C34.4536 45.8032 30.1526 46.3276 26.1184 45.311C27.48 44.414 28.7864 43.4296 30.033 42.3578C33.322 39.5288 36.0866 36.1846 38.2486 32.4264C38.4648 32.0538 38.336 31.5754 37.9588 31.3592C37.5862 31.143 37.1078 31.2718 36.8916 31.649C33.736 37.1 29.2234 41.654 23.8598 44.8648C23.8368 44.874 23.8184 44.8878 23.7954 44.9016C22.075 45.9274 20.2718 46.8106 18.395 47.5466C17.9948 47.703 17.7924 48.1584 17.9534 48.5586C18.073 48.8668 18.3674 49.0554 18.6802 49.0554C18.7768 49.0554 18.8734 49.037 18.9654 49.0002C20.8238 48.2734 22.6086 47.4086 24.3198 46.4104C26.2242 47.0544 28.2022 47.3764 30.1756 47.3764C33.184 47.3764 36.1786 46.6358 38.8742 45.1684C43.4098 42.712 46.6942 38.434 47.904 33.4246C47.9316 33.3602 47.9546 33.2912 47.9638 33.2176C48.5572 29.3536 48.5434 25.4344 47.9316 21.5704ZM25.3686 31.12C25.3594 30.2828 25.3226 29.5054 25.2582 28.7602C25.1156 27.1686 24.8442 25.4942 24.4302 23.6312C24.3382 23.208 23.9196 22.9458 23.4964 23.0378C23.0732 23.1298 22.811 23.5484 22.903 23.9716C23.3032 25.7656 23.5654 27.3756 23.6988 28.8982C23.8276 30.3564 23.8414 31.9618 23.7356 33.9352C23.2388 34.938 22.8064 35.973 22.4476 37.0402C17.7372 31.419 17.8982 23.1712 23.0226 17.7156C23.1238 17.6052 23.2986 17.5914 23.4412 17.6742C26.7946 19.6706 28.768 23.2862 28.6438 27.1686C27.411 28.3784 26.3162 29.7032 25.3686 31.12Z" fill="url(#paint0_linear_804_2269)"/>
</g>
<rect x="1" y="0.5" width="64" height="64" rx="24" stroke="url(#paint1_linear_804_2269)"/>
<defs>
<linearGradient id="paint0_linear_804_2269" x1="17.8235" y1="23.1994" x2="39.0151" y2="23.422" gradientUnits="userSpaceOnUse">
<stop stop-color="#FF00FF"/>
<stop offset="1" stop-color="#00BBFF"/>
</linearGradient>
<linearGradient id="paint1_linear_804_2269" x1="61.7057" y1="64.5" x2="3.46322" y2="1.26542" gradientUnits="userSpaceOnUse">
<stop stop-color="#00BBFF"/>
<stop offset="1" stop-color="white"/>
</linearGradient>
<clipPath id="clip0_804_2269">
<rect x="1" y="0.5" width="64" height="64" rx="24" fill="white"/>
</clipPath>
</defs>
</svg>
